<?xml version="1.0" encoding="UTF-8"?>
<svg id="Layer_2" xmlns="http://www.w3.org/2000/svg" viewBox="0 0 15.79 13.73">
  <defs>
    <style>
      .cls-1 {
        fill: #1877f2;
      }
    </style>
  </defs>
  <g id="Layer_1-2" data-name="Layer_1">
    <g id="Layer_1-3" data-name="Layer_1">
      <g id="Layer_1-2">
        <g id="Layer_1-2-2" data-name="Layer_1-2">
          <path id="Layer_copy" class="cls-1" d="M1.39.02s.04.05.07.09c.24.29.42.75.52,1.34.06.39.07.51.07,1.98v1.37h-.66c-.6,0-.67,0-.79-.03-.19-.04-.38-.15-.51-.28-.1-.11-.1-.12-.09.21,0,.27.01.3.05.45.06.24.15.41.28.57.18.21.36.33.62.42.06.02.17.02.59.03h.52v1.38h-.73s-.73,0-.73,0l-.13-.05c-.15-.06-.22-.1-.36-.24l-.11-.1v.3c.01.28.02.31.06.45.14.5.47.86.91.98.11.03.15.03.61.04h.49v1.42c0,.85,0,1.48-.01,1.59,0,.1-.03.28-.06.41-.1.59-.29,1.03-.55,1.32l-.05.06h2.67c1.6,0,2.79,0,2.97-.01.31-.02.99-.08,1.15-.12.05,0,.14-.02.2-.03.13-.02.34-.06.64-.14.43-.11.82-.24,1.2-.41.12-.05.46-.23.56-.28.05-.03.11-.06.13-.07.06-.03.16-.1.31-.21.07-.05.15-.11.16-.12.07-.04.3-.24.4-.33.4-.36.73-.77.99-1.2.04-.06.08-.14.1-.18.05-.09.27-.53.29-.6,0-.03.02-.06.03-.07.04-.05.28-.8.31-.96,0-.05.01-.06.05-.07.03,0,.39,0,.82,0,.57,0,.91.03,1.04.09.11.05.14.07.25.18.15.14.14.16.13-.18,0-.2-.01-.33-.03-.38-.05-.19-.07-.24-.11-.33-.15-.34-.41-.58-.75-.69l-.13-.05h-.53s-.53-.01-.53-.01v-.18c.01-.24.01-.72,0-.97v-.2s.7,0,.7,0c.6,0,.72,0,.78.02.2.06.33.13.5.28l.09.09v-.23c0-.28-.01-.4-.07-.58-.11-.37-.33-.65-.65-.82-.21-.11-.22-.11-.92-.12-.41,0-.63,0-.64-.02,0,0-.02-.03-.02-.04s-.02-.11-.06-.22c-.37-1.31-1.06-2.34-2.07-3.11-.14-.11-.47-.33-.61-.4-.05-.03-.11-.06-.12-.07-.07-.04-.45-.22-.54-.26-.06-.03-.13-.06-.16-.07-.56-.24-1.49-.47-2.21-.54-.12-.01-.27-.03-.34-.03-.32-.04-.77-.04-3.31-.04S1.39,0,1.39.02h0ZM6.62.7c.53.03.86.07,1.25.17,1.17.28,2,.87,2.59,1.85.06.09.29.57.32.66.17.45.25.71.32,1.06.02.09.04.2.05.25.01.05.02.1.01.11,0,0-1.59,0-3.53,0h-3.51s0-2.03,0-2.03c0-1.11,0-2.04,0-2.06v-.03h1.13c.62,0,1.23,0,1.37.01h0ZM11.31,6.23c.01.07.01,1.22,0,1.28v.04s-3.6,0-3.6,0h-3.59s0-.67,0-.67c0-.37,0-.67,0-.68,0,0,1.53-.01,3.6-.01h3.59v.05h0ZM11.15,8.94s-.03.22-.11.53c-.09.36-.21.71-.33.98-.06.14-.21.43-.25.48-.02.03-.07.11-.11.18-.28.45-.69.85-1.15,1.15-.17.11-.52.29-.61.32-.02,0-.04.01-.05.02-.01,0-.15.06-.32.12-.31.11-.89.23-1.36.28-.3.03-.35.03-1.53.03h-1.21v-4.1h3.49c1.92,0,3.5-.01,3.51-.02.01,0,.03,0,.03.02h0Z"/>
        </g>
      </g>
    </g>
  </g>
</svg>