<?xml version="1.0" encoding="UTF-8"?>
<svg id="Layer_1" data-name="Layer 1" xmlns="http://www.w3.org/2000/svg" viewBox="0 0 183.38 65.72">
  <defs>
    <style>
      .cls-1 {
        fill: #1877f2;
      }

      .cls-2 {
        fill: #ffde21;
      }

      .cls-3 {
        fill: #a6b1b7;
      }
    </style>
  </defs>
  <g>
    <path class="cls-1" d="M1.56,19.56c.86-2.04,2.08-3.78,3.64-5.22,1.56-1.44,3.43-2.56,5.62-3.35,2.18-.79,4.62-1.19,7.31-1.19s5.13.4,7.31,1.19c2.19.79,4.06,1.9,5.62,3.31,1.56,1.42,2.77,3.12,3.64,5.12.86,1.99,1.3,4.17,1.3,6.52s-.31,4.3-.94,5.98c-.63,1.68-1.39,3.07-2.31,4.18-.91,1.11-1.91,1.91-2.99,2.41-1.08.5-2.13.76-3.13.76v.72c1.06,0,2.15.17,3.28.5,1.13.34,2.17.89,3.13,1.66.96.77,1.75,1.79,2.38,3.06.62,1.27.94,2.87.94,4.79,0,2.4-.41,4.54-1.22,6.41-.82,1.87-1.99,3.47-3.53,4.79-1.54,1.32-3.41,2.33-5.62,3.03-2.21.7-4.71,1.04-7.49,1.04s-5.43-.37-7.64-1.12c-2.21-.75-4.07-1.84-5.58-3.28-1.51-1.44-2.67-3.21-3.46-5.3-.79-2.09-1.19-4.5-1.19-7.24h6.85c0,3.46.92,6.08,2.77,7.85,1.85,1.78,4.6,2.67,8.25,2.67s6.28-.78,8.18-2.34c1.9-1.56,2.85-3.83,2.85-6.81,0-1.68-.41-2.98-1.22-3.89-.82-.91-1.8-1.59-2.95-2.02s-2.38-.68-3.67-.76c-1.3-.07-2.48-.11-3.53-.11-2.69,0-5.13-.4-7.31-1.19-2.19-.79-4.06-1.91-5.62-3.35-1.56-1.44-2.77-3.18-3.64-5.22s-1.3-4.31-1.3-6.81.43-4.77,1.3-6.81ZM10.1,33.8c1.99,1.83,4.67,2.74,8.03,2.74,1.78,0,3.35-.18,4.72-.54,1.37-.36,2.52-.95,3.46-1.77.94-.82,1.65-1.87,2.13-3.17.48-1.3.72-2.86.72-4.68,0-3.17-.98-5.66-2.95-7.46-1.97-1.8-4.66-2.7-8.07-2.7s-6.04.91-8.03,2.74c-1.99,1.83-2.99,4.3-2.99,7.42s1,5.6,2.99,7.42ZM30.31,3.89c.82-.77,1.95-1.15,3.39-1.15s2.58.38,3.42,1.15c.84.77,1.26,1.78,1.26,3.03s-.42,2.33-1.26,3.1c-.84.77-1.98,1.15-3.42,1.15s-2.57-.38-3.39-1.15c-.82-.77-1.22-1.8-1.22-3.1s.41-2.26,1.22-3.03Z"/>
    <path class="cls-1" d="M49.12,46.55h-6.85v-17.65c0-2.93.43-5.56,1.3-7.89.86-2.33,2.13-4.31,3.78-5.94,1.66-1.63,3.65-2.88,5.98-3.75,2.33-.86,4.94-1.3,7.82-1.3v6.56c-1.83,0-3.47.26-4.94.79-1.47.53-2.73,1.29-3.78,2.27-1.06.99-1.87,2.19-2.45,3.6-.58,1.42-.86,3.01-.86,4.79v18.52Z"/>
    <path class="cls-1" d="M65.15,21.08c.89-2.38,2.16-4.41,3.82-6.09,1.66-1.68,3.65-2.97,5.98-3.86,2.33-.89,4.94-1.33,7.82-1.33s5.42.44,7.75,1.33c2.33.89,4.32,2.16,5.98,3.82,1.66,1.66,2.94,3.64,3.85,5.94.91,2.31,1.37,4.85,1.37,7.64v18.02h-6.85v-7.06h-.72v.65c0,.72-.26,1.5-.79,2.34-.53.84-1.33,1.62-2.41,2.34-1.08.72-2.43,1.31-4.03,1.77-1.61.46-3.47.68-5.59.68-2.59,0-4.97-.43-7.13-1.3-2.16-.86-4.01-2.1-5.55-3.71-1.54-1.61-2.73-3.53-3.57-5.76-.84-2.23-1.26-4.72-1.26-7.46,0-2.93.44-5.58,1.33-7.96ZM73.83,37.54c2.11,2.21,5.02,3.32,8.72,3.32,2.21,0,4.09-.3,5.66-.9,1.56-.6,2.83-1.44,3.82-2.52.98-1.08,1.7-2.38,2.16-3.89.46-1.51.68-3.18.68-5.01,0-3.79-1.08-6.8-3.24-9.01-2.16-2.21-5.12-3.31-8.86-3.31-1.83,0-3.47.3-4.94.9-1.47.6-2.74,1.44-3.82,2.52s-1.91,2.38-2.49,3.89c-.58,1.51-.86,3.18-.86,5.01,0,3.8,1.06,6.8,3.17,9.01Z"/>
    <path class="cls-1" d="M118.62,45.4c-2.57-.77-4.67-1.97-6.31-3.6-1.63-1.63-2.82-3.69-3.57-6.16-.75-2.47-1.12-5.44-1.12-8.9V3.03h6.85v24.65c0,2.26.23,4.16.68,5.69.46,1.54,1.21,2.8,2.27,3.78,1.06.99,2.44,1.71,4.14,2.16,1.7.46,3.83.68,6.38.68v6.56c-3.65,0-6.76-.38-9.33-1.15ZM127.95,10.95v6.13h-16v-6.13h16Z"/>
    <path class="cls-1" d="M132.78,20.32c0-3.6,1.38-6.27,4.14-8,2.76-1.73,6.83-2.59,12.21-2.59,2.69,0,5.12.16,7.28.47,2.16.31,4.23.83,6.2,1.55v6.41c-1.3-.43-3.19-.95-5.69-1.55-2.5-.6-5.31-.9-8.43-.9s-5.2.34-6.67,1.01c-1.47.67-2.2,1.71-2.2,3.1,0,1.2.6,2.14,1.8,2.81,1.2.67,2.71,1.25,4.54,1.73,1.82.48,3.79.95,5.91,1.41,2.11.46,4.07,1.09,5.87,1.91,1.8.82,3.32,1.86,4.54,3.13,1.22,1.27,1.84,2.99,1.84,5.15,0,3.6-1.38,6.4-4.14,8.4-2.76,1.99-6.83,2.99-12.21,2.99-2.69,0-5.12-.14-7.28-.43-2.16-.29-4.23-.82-6.2-1.59v-6.41c1.25.48,3.13,1.02,5.66,1.62,2.52.6,5.34.9,8.47.9s5.2-.48,6.67-1.44c1.47-.96,2.2-2.09,2.2-3.39s-.61-2.21-1.84-2.88c-1.22-.67-2.74-1.25-4.54-1.73-1.8-.48-3.77-.95-5.91-1.41-2.14-.46-4.11-1.08-5.91-1.87-1.8-.79-3.3-1.85-4.5-3.17-1.2-1.32-1.8-3.06-1.8-5.23Z"/>
  </g>
  <path class="cls-2" d="M177.88,11c-.1.35-.24.68-.41.99l3.29,3.29-1.8,1.8-3.29-3.29c-.31.18-.64.31-.99.41v4.65h-2.54v-4.65c-.35-.1-.68-.24-.99-.41l-3.29,3.29-1.8-1.8,3.29-3.29c-.18-.31-.31-.64-.41-.99h-4.65v-2.54h4.65c.1-.35.24-.68.41-.99l-3.29-3.29,1.8-1.8,3.29,3.29c.31-.18.64-.31.99-.41V.6h2.54v4.65c.35.1.68.24.99.41l3.29-3.29,1.8,1.8-3.29,3.29c.18.31.31.64.41.99h4.65v2.54h-4.65Z"/>
  <g>
    <path class="cls-3" d="M45.48,61.58c-.51,0-.94-.09-1.31-.28-.36-.19-.64-.47-.84-.85-.2-.38-.29-.87-.29-1.47v-3.76c0-.07.02-.12.05-.16.04-.04.09-.06.15-.06h.46c.07,0,.12.02.16.06.04.04.06.09.06.16v3.78c0,.61.14,1.05.41,1.34s.66.44,1.14.44.85-.14,1.13-.44.42-.74.42-1.34v-3.78c0-.07.02-.12.06-.16s.09-.06.15-.06h.47c.06,0,.11.02.15.06.04.04.06.09.06.16v3.76c0,.6-.1,1.09-.29,1.47-.2.38-.47.66-.84.85s-.8.28-1.31.28Z"/>
    <path class="cls-3" d="M48.89,61.49s-.09-.02-.13-.06c-.04-.04-.05-.08-.05-.13,0-.03,0-.06,0-.1l2.24-6c.02-.06.06-.11.1-.15.04-.04.11-.06.19-.06h.61c.08,0,.14.02.19.06.04.04.08.09.1.15l2.23,6s.02.07.02.1c0,.05-.02.09-.05.13s-.08.06-.13.06h-.46c-.07,0-.13-.02-.16-.06-.03-.04-.06-.07-.07-.1l-.5-1.32h-2.96l-.5,1.32s-.03.06-.06.1-.09.06-.16.06h-.46ZM50.33,59.22h2.44l-1.22-3.29-1.22,3.29Z"/>
    <path class="cls-3" d="M55.57,61.49c-.07,0-.12-.02-.15-.06-.04-.04-.05-.09-.05-.15v-6.05c0-.07.02-.12.05-.16.04-.04.09-.06.15-.06h3.73c.07,0,.12.02.15.06.04.04.05.09.05.16v.35c0,.07-.02.12-.05.16s-.09.06-.15.06h-3.07v2.03h2.87c.07,0,.12.02.15.06.04.04.06.09.06.16v.34c0,.06-.02.11-.06.15-.04.04-.09.06-.15.06h-2.87v2.1h3.14c.07,0,.12.02.15.06.04.04.05.09.05.16v.36c0,.06-.02.11-.05.15-.04.04-.09.06-.15.06h-3.8Z"/>
    <path class="cls-3" d="M65.34,61.58c-.53,0-.98-.1-1.35-.31-.37-.2-.65-.49-.85-.86-.19-.37-.31-.81-.33-1.31,0-.27,0-.56,0-.87s0-.6,0-.88c.02-.5.13-.93.33-1.3.2-.36.48-.65.85-.85s.82-.31,1.35-.31c.43,0,.8.06,1.11.19.31.12.57.28.77.47.2.19.35.38.45.59s.15.38.16.54c0,.06,0,.1-.04.13-.04.03-.08.05-.14.05h-.53c-.06,0-.1-.01-.13-.04-.03-.02-.05-.07-.08-.13-.05-.16-.14-.32-.27-.47-.12-.15-.29-.28-.5-.39-.21-.1-.47-.15-.8-.15-.48,0-.86.13-1.15.4-.29.26-.45.7-.47,1.32-.02.55-.02,1.1,0,1.65.02.62.18,1.06.48,1.33s.68.4,1.16.4c.32,0,.6-.06.85-.18.25-.12.45-.31.59-.56.14-.25.22-.57.22-.96v-.39h-1.35c-.06,0-.11-.02-.15-.06-.04-.04-.06-.09-.06-.16v-.3c0-.07.02-.12.06-.16s.09-.06.15-.06h2.04c.07,0,.12.02.15.06.04.04.05.09.05.16v.89c0,.51-.1.95-.3,1.32-.2.38-.5.67-.88.88-.39.21-.85.31-1.38.31Z"/>
    <path class="cls-3" d="M69.4,61.49c-.07,0-.12-.02-.15-.06-.04-.04-.05-.09-.05-.15v-6.05c0-.07.02-.12.05-.16.04-.04.09-.06.15-.06h2.2c.68,0,1.22.16,1.62.49.4.33.6.81.6,1.45,0,.48-.12.86-.35,1.16-.23.3-.55.51-.94.62l1.39,2.47s.03.07.03.1c0,.05-.02.09-.06.13-.04.04-.08.06-.13.06h-.43c-.1,0-.18-.03-.23-.08-.05-.06-.09-.11-.13-.17l-1.31-2.35h-1.58v2.39c0,.06-.02.11-.06.15-.04.04-.09.06-.16.06h-.46ZM70.08,58.1h1.49c.45,0,.79-.1,1.01-.29.22-.19.33-.48.33-.87s-.11-.67-.33-.86-.56-.3-1.02-.3h-1.49v2.32Z"/>
    <path class="cls-3" d="M74.68,61.49s-.09-.02-.13-.06c-.04-.04-.05-.08-.05-.13,0-.03,0-.06,0-.1l2.24-6c.02-.06.06-.11.1-.15.04-.04.11-.06.19-.06h.61c.08,0,.14.02.19.06.04.04.08.09.1.15l2.23,6s.02.07.02.1c0,.05-.02.09-.05.13s-.08.06-.13.06h-.46c-.07,0-.13-.02-.16-.06-.03-.04-.06-.07-.07-.1l-.5-1.32h-2.96l-.5,1.32s-.03.06-.06.1-.09.06-.16.06h-.46ZM76.13,59.22h2.44l-1.22-3.29-1.22,3.29Z"/>
    <path class="cls-3" d="M82.08,61.49c-.06,0-.11-.02-.15-.06-.04-.04-.06-.09-.06-.15v-5.45h-1.73c-.06,0-.11-.02-.15-.06-.04-.04-.06-.09-.06-.15v-.39c0-.07.02-.12.06-.16.04-.04.09-.06.15-.06h4.35c.07,0,.12.02.16.06s.06.09.06.16v.39c0,.06-.02.11-.06.15-.04.04-.09.06-.16.06h-1.72v5.45c0,.06-.02.11-.06.15-.04.04-.09.06-.16.06h-.47Z"/>
    <path class="cls-3" d="M88.1,61.58c-.51,0-.94-.09-1.31-.28-.36-.19-.64-.47-.84-.85-.2-.38-.29-.87-.29-1.47v-3.76c0-.07.02-.12.05-.16.04-.04.09-.06.15-.06h.46c.07,0,.12.02.16.06.04.04.06.09.06.16v3.78c0,.61.14,1.05.41,1.34s.66.44,1.14.44.85-.14,1.13-.44.42-.74.42-1.34v-3.78c0-.07.02-.12.06-.16s.09-.06.15-.06h.47c.06,0,.11.02.15.06.04.04.06.09.06.16v3.76c0,.6-.1,1.09-.29,1.47-.2.38-.47.66-.84.85s-.8.28-1.31.28Z"/>
    <path class="cls-3" d="M92.26,61.49c-.07,0-.12-.02-.15-.06-.04-.04-.05-.09-.05-.15v-6.06c0-.06.02-.11.05-.15.04-.04.09-.06.15-.06h.48c.06,0,.11.02.15.06.04.04.06.09.06.15v6.06c0,.06-.02.11-.06.15-.04.04-.09.06-.15.06h-.48Z"/>
    <path class="cls-3" d="M96.1,61.49c-.06,0-.11-.02-.15-.06-.04-.04-.06-.09-.06-.15v-5.45h-1.73c-.06,0-.11-.02-.15-.06-.04-.04-.06-.09-.06-.15v-.39c0-.07.02-.12.06-.16.04-.04.09-.06.15-.06h4.35c.07,0,.12.02.16.06s.06.09.06.16v.39c0,.06-.02.11-.06.15-.04.04-.09.06-.16.06h-1.72v5.45c0,.06-.02.11-.06.15-.04.04-.09.06-.16.06h-.47Z"/>
    <path class="cls-3" d="M101.64,61.49c-.06,0-.11-.02-.15-.06-.04-.04-.06-.09-.06-.15v-2.19l-2.18-3.78s-.01-.04-.02-.06c0-.02,0-.04,0-.06,0-.05.02-.09.05-.13s.08-.06.13-.06h.47c.05,0,.1.01.14.04.04.03.07.07.09.12l1.76,3,1.76-3c.03-.05.07-.09.1-.12.04-.03.09-.04.14-.04h.46c.05,0,.1.02.14.06.04.04.05.08.05.13,0,.02,0,.05,0,.06,0,.02-.01.04-.03.06l-2.17,3.78v2.19c0,.06-.02.11-.06.15-.04.04-.09.06-.16.06h-.47Z"/>
    <path class="cls-3" d="M109.81,61.58c-.55,0-1.01-.11-1.38-.32-.36-.21-.64-.5-.83-.88-.19-.38-.29-.82-.31-1.32,0-.25,0-.52,0-.82s0-.57,0-.83c.02-.5.12-.94.31-1.32.19-.38.46-.67.83-.88.36-.21.82-.31,1.38-.31.41,0,.78.06,1.09.18.31.12.57.27.78.47.21.2.36.42.47.66.11.24.17.5.18.76,0,.06-.01.1-.05.14-.04.04-.09.06-.14.06h-.5c-.05,0-.1-.01-.14-.05-.04-.03-.07-.09-.09-.17-.1-.48-.29-.81-.57-.99-.28-.18-.63-.27-1.05-.27-.48,0-.86.14-1.15.42s-.44.73-.46,1.35c-.02.51-.02,1.03,0,1.56.02.62.18,1.07.46,1.35s.67.42,1.15.42c.42,0,.77-.09,1.05-.27.28-.18.47-.51.57-.99.02-.08.05-.14.09-.17.04-.03.09-.05.14-.05h.5c.05,0,.1.02.14.06.04.04.06.08.05.14-.01.26-.07.51-.18.76-.11.24-.27.47-.47.66-.21.2-.47.36-.78.47-.31.12-.68.18-1.09.18Z"/>
    <path class="cls-3" d="M113.06,61.49s-.09-.02-.13-.06c-.04-.04-.05-.08-.05-.13,0-.03,0-.06,0-.1l2.24-6c.02-.06.06-.11.1-.15.04-.04.11-.06.19-.06h.61c.08,0,.14.02.19.06.04.04.08.09.1.15l2.23,6s.02.07.02.1c0,.05-.02.09-.05.13s-.08.06-.13.06h-.46c-.07,0-.13-.02-.16-.06-.03-.04-.06-.07-.07-.1l-.5-1.32h-2.96l-.5,1.32s-.03.06-.06.1-.09.06-.16.06h-.46ZM114.51,59.22h2.44l-1.22-3.29-1.22,3.29Z"/>
    <path class="cls-3" d="M119.74,61.49c-.07,0-.12-.02-.15-.06-.04-.04-.05-.09-.05-.15v-6.06c0-.06.02-.11.05-.15.04-.04.09-.06.15-.06h.48c.06,0,.11.02.14.06.04.04.05.09.05.15v5.47h3.01c.07,0,.12.02.15.06.04.04.05.09.05.16v.37c0,.06-.02.11-.05.15-.04.04-.09.06-.15.06h-3.68Z"/>
    <path class="cls-3" d="M126.81,61.58c-.55,0-1.01-.11-1.38-.32-.36-.21-.64-.5-.83-.88-.19-.38-.29-.82-.31-1.32,0-.25,0-.52,0-.82s0-.57,0-.83c.02-.5.12-.94.31-1.32.19-.38.46-.67.83-.88.36-.21.82-.31,1.38-.31.41,0,.78.06,1.09.18.31.12.57.27.78.47.21.2.36.42.47.66.11.24.17.5.18.76,0,.06-.01.1-.05.14-.04.04-.09.06-.14.06h-.5c-.05,0-.1-.01-.14-.05-.04-.03-.07-.09-.09-.17-.1-.48-.29-.81-.57-.99-.28-.18-.63-.27-1.05-.27-.48,0-.86.14-1.15.42s-.44.73-.46,1.35c-.02.51-.02,1.03,0,1.56.02.62.18,1.07.46,1.35s.67.42,1.15.42c.42,0,.77-.09,1.05-.27.28-.18.47-.51.57-.99.02-.08.05-.14.09-.17.04-.03.09-.05.14-.05h.5c.05,0,.1.02.14.06.04.04.06.08.05.14-.01.26-.07.51-.18.76-.11.24-.27.47-.47.66-.21.2-.47.36-.78.47-.31.12-.68.18-1.09.18Z"/>
    <path class="cls-3" d="M132.93,61.58c-.51,0-.94-.09-1.31-.28-.36-.19-.64-.47-.84-.85-.2-.38-.29-.87-.29-1.47v-3.76c0-.07.02-.12.05-.16.04-.04.09-.06.15-.06h.46c.07,0,.12.02.16.06.04.04.06.09.06.16v3.78c0,.61.14,1.05.41,1.34s.66.44,1.14.44.85-.14,1.13-.44.42-.74.42-1.34v-3.78c0-.07.02-.12.06-.16s.09-.06.15-.06h.47c.06,0,.11.02.15.06.04.04.06.09.06.16v3.76c0,.6-.1,1.09-.29,1.47-.2.38-.47.66-.84.85s-.8.28-1.31.28Z"/>
    <path class="cls-3" d="M137.08,61.49c-.07,0-.12-.02-.15-.06-.04-.04-.05-.09-.05-.15v-6.06c0-.06.02-.11.05-.15.04-.04.09-.06.15-.06h.48c.06,0,.11.02.14.06.04.04.05.09.05.15v5.47h3.01c.07,0,.12.02.15.06.04.04.05.09.05.16v.37c0,.06-.02.11-.05.15-.04.04-.09.06-.15.06h-3.68Z"/>
    <path class="cls-3" d="M141.53,61.49s-.09-.02-.13-.06c-.04-.04-.05-.08-.05-.13,0-.03,0-.06,0-.1l2.24-6c.02-.06.06-.11.1-.15.04-.04.11-.06.19-.06h.61c.08,0,.14.02.19.06.04.04.08.09.1.15l2.23,6s.02.07.02.1c0,.05-.02.09-.05.13s-.08.06-.13.06h-.46c-.07,0-.13-.02-.16-.06-.03-.04-.06-.07-.07-.1l-.5-1.32h-2.96l-.5,1.32s-.03.06-.06.1-.09.06-.16.06h-.46ZM142.98,59.22h2.44l-1.22-3.29-1.22,3.29Z"/>
    <path class="cls-3" d="M148.93,61.49c-.06,0-.11-.02-.15-.06-.04-.04-.06-.09-.06-.15v-5.45h-1.73c-.06,0-.11-.02-.15-.06-.04-.04-.06-.09-.06-.15v-.39c0-.07.02-.12.06-.16.04-.04.09-.06.15-.06h4.35c.07,0,.12.02.16.06s.06.09.06.16v.39c0,.06-.02.11-.06.15-.04.04-.09.06-.16.06h-1.72v5.45c0,.06-.02.11-.06.15-.04.04-.09.06-.16.06h-.47Z"/>
    <path class="cls-3" d="M154.7,61.58c-.51,0-.95-.09-1.32-.27-.37-.18-.65-.46-.85-.84s-.31-.86-.33-1.43c0-.27,0-.53,0-.78s0-.51,0-.78c.02-.57.14-1.04.35-1.42s.5-.66.87-.85c.37-.19.8-.28,1.29-.28s.92.09,1.3.28c.37.19.66.47.87.85s.32.85.34,1.42c.01.27.02.53.02.78s0,.51-.02.78c-.02.57-.13,1.05-.33,1.43s-.49.66-.85.84c-.37.18-.81.27-1.33.27ZM154.7,60.8c.46,0,.84-.14,1.13-.43.29-.28.45-.74.47-1.38.01-.28.02-.53.02-.74s0-.47-.02-.74c-.01-.43-.09-.77-.23-1.04-.14-.26-.33-.46-.56-.58-.24-.12-.51-.19-.81-.19s-.56.06-.79.19c-.24.12-.42.32-.57.58-.14.27-.22.61-.24,1.04,0,.27,0,.52,0,.74s0,.47,0,.74c.02.64.18,1.1.48,1.38s.67.43,1.12.43Z"/>
    <path class="cls-3" d="M158.75,61.49c-.07,0-.12-.02-.15-.06-.04-.04-.05-.09-.05-.15v-6.05c0-.07.02-.12.05-.16.04-.04.09-.06.15-.06h2.2c.68,0,1.22.16,1.62.49.4.33.6.81.6,1.45,0,.48-.12.86-.35,1.16-.23.3-.55.51-.94.62l1.39,2.47s.03.07.03.1c0,.05-.02.09-.06.13-.04.04-.08.06-.13.06h-.43c-.1,0-.18-.03-.23-.08-.05-.06-.09-.11-.13-.17l-1.31-2.35h-1.58v2.39c0,.06-.02.11-.06.15-.04.04-.09.06-.16.06h-.46ZM159.43,58.1h1.49c.45,0,.79-.1,1.01-.29.22-.19.33-.48.33-.87s-.11-.67-.33-.86-.56-.3-1.02-.3h-1.49v2.32Z"/>
  </g>
</svg>